<svg width="31" height="36" viewBox="0 0 31 36" fill="none" xmlns="http://www.w3.org/2000/svg">
<path d="M22.395 0.564941C22.395 0.700037 22.4073 4.13883 22.4073 4.27392C22.3583 8.27766 18.9666 11.5691 14.9259 11.5077C10.9098 11.4585 7.56704 8.05659 7.60377 4.06514C7.60377 4.00373 7.60377 3.94232 7.61602 3.88092H0.0122444C0.0122444 4.01601 0 4.15111 0 4.2862C0.0367332 12.306 6.22016 18.7782 14.3749 19.3309C21.7705 19.8344 29.1172 13.9639 29.8641 6.32491C29.9376 5.51434 29.9988 1.38779 30.0478 0.564941H22.395V0.564941Z" fill="#0066FF"/>
<path d="M29.3866 17.2922C31.1497 21.6275 29.2151 25.9383 24.8316 27.6945C21.6848 28.9595 18.4645 30.0525 15.281 31.2193C11.5465 32.5825 7.82417 33.958 4.08962 35.3213C3.62434 35.4932 3.13456 35.5792 2.66927 35.702C1.16321 31.8211 2.66927 27.3875 6.4283 25.8769C13.9709 22.8679 21.6358 20.1783 29.3866 17.2922Z" fill="#0066FF"/>
</svg>
