<svg width="100" height="36" viewBox="0 0 100 36" fill="none" xmlns="http://www.w3.org/2000/svg">
<g clip-path="url(#clip0_2655_23598)">
<path d="M56.765 4.9494L49.3694 22.389C47.7899 26.3559 45.5369 27.5472 42.5738 27.5472C40.8963 27.5472 39.0719 26.9945 38.0066 26.0488L39.7453 22.6592C40.48 23.2978 41.484 23.7031 42.4268 23.7031C43.737 23.7031 44.4716 23.1259 45.1083 21.6521L45.1696 21.5047L38.0678 4.9494H42.9778L47.5817 16.1009L52.2101 4.9494H56.765Z" fill="#100F3C"/>
<path d="M73.001 14.5166H60.6097C61.0627 16.5676 62.8015 17.8203 65.2993 17.8203C67.038 17.8203 68.2869 17.3045 69.4134 16.236L71.9358 18.987C70.4175 20.731 68.1278 21.6398 65.1769 21.6398C59.5077 21.6398 55.8221 18.0659 55.8221 13.1779C55.8221 8.2531 59.5689 4.71606 64.5646 4.71606C69.3767 4.71606 73.099 7.95835 73.099 13.2393C73.099 13.5955 73.0378 14.1113 73.001 14.5166ZM60.5485 11.7287H68.6175C68.2869 9.65318 66.7319 8.30223 64.6014 8.30223C62.4341 8.31451 60.8791 9.62862 60.5485 11.7287Z" fill="#100F3C"/>
<path d="M92.8982 13.1657C92.8982 18.3239 89.3351 21.6276 84.7312 21.6276C82.6864 21.6276 81.0089 20.9889 79.7967 19.638V27.3016H75.0459V4.94942H79.5886V6.84076C80.7763 5.40384 82.5395 4.7038 84.7312 4.7038C89.3351 4.7038 92.8982 8.00749 92.8982 13.1657ZM88.0862 13.1657C88.0862 10.3287 86.2863 8.60928 83.9108 8.60928C81.5354 8.60928 79.7355 10.3164 79.7355 13.1657C79.7355 16.0027 81.5354 17.7221 83.9108 17.7221C86.2863 17.7221 88.0862 16.015 88.0862 13.1657Z" fill="#100F3C"/>
<path d="M94.1472 18.8519C94.1472 17.2922 95.3717 16.1377 97.0736 16.1377C98.7756 16.1377 100 17.3045 100 18.8519C100 20.3748 98.7756 21.6275 97.0736 21.6275C95.3717 21.6275 94.1472 20.3748 94.1472 18.8519ZM94.2329 0H99.9021L98.9593 13.9639H95.188L94.2329 0Z" fill="#100F3C"/>
<path d="M22.395 0.564941C22.395 0.700037 22.4073 4.13883 22.4073 4.27392C22.3583 8.27766 18.9666 11.5691 14.9259 11.5077C10.9098 11.4585 7.56704 8.05659 7.60377 4.06514C7.60377 4.00373 7.60377 3.94232 7.61602 3.88092H0.0122444C0.0122444 4.01601 0 4.15111 0 4.2862C0.0367332 12.306 6.22016 18.7782 14.3749 19.3309C21.7705 19.8344 29.1172 13.9639 29.8641 6.32491C29.9376 5.51434 29.9988 1.38779 30.0478 0.564941H22.395Z" fill="#0066FF"/>
<path d="M29.3866 17.2922C31.1497 21.6275 29.2151 25.9383 24.8316 27.6945C21.6848 28.9595 18.4646 30.0525 15.281 31.2193C11.5465 32.5825 7.82417 33.958 4.08962 35.3213C3.62434 35.4932 3.13456 35.5792 2.66927 35.702C1.16321 31.8211 2.66927 27.3875 6.4283 25.8769C13.9709 22.8679 21.6358 20.1783 29.3866 17.2922Z" fill="#0066FF"/>
</g>
<defs>
<clipPath id="clip0_2655_23598">
<rect width="100" height="35.7143" fill="white"/>
</clipPath>
</defs>
</svg>
