<svg width="205" height="173" viewBox="0 0 205 173" fill="none" xmlns="http://www.w3.org/2000/svg">
<g clip-path="url(#clip0_1_4836)">
<path d="M131.385 103.773H76.3999C74.9263 103.771 73.5136 103.185 72.4716 102.143C71.4296 101.101 70.8435 99.6886 70.8418 98.215V25.4087C70.8435 23.9351 71.4296 22.5224 72.4716 21.4804C73.5136 20.4384 74.9263 19.8523 76.3999 19.8506H131.385C132.858 19.8523 134.271 20.4384 135.313 21.4804C136.355 22.5224 136.941 23.9351 136.943 25.4087V98.215C136.941 99.6886 136.355 101.101 135.313 102.143C134.271 103.185 132.858 103.771 131.385 103.773Z" fill="#F0F0F7"/>
<path d="M127.52 99.1406H80.2651C78.9567 99.1391 77.7023 98.6187 76.7771 97.6935C75.852 96.7684 75.3316 95.514 75.3301 94.2056V29.4179C75.3316 28.1095 75.852 26.8552 76.7771 25.93C77.7023 25.0048 78.9567 24.4844 80.2651 24.4829H127.52C128.828 24.4844 130.083 25.0048 131.008 25.93C131.933 26.8551 132.454 28.1095 132.455 29.4179V94.2056C132.454 95.514 131.933 96.7684 131.008 97.6935C130.083 98.6187 128.828 99.1391 127.52 99.1406Z" fill="white"/>
<path d="M122.806 36.795H84.9791C84.8169 36.7952 84.6563 36.7634 84.5064 36.7016C84.3566 36.6397 84.2204 36.5488 84.1056 36.4342C83.9909 36.3197 83.8998 36.1836 83.8377 36.0338C83.7756 35.884 83.7437 35.7235 83.7437 35.5613C83.7437 35.3991 83.7756 35.2386 83.8377 35.0888C83.8998 34.939 83.9909 34.8029 84.1056 34.6883C84.2204 34.5738 84.3566 34.4829 84.5064 34.421C84.6563 34.3591 84.8169 34.3274 84.9791 34.3276H122.806C122.968 34.3274 123.129 34.3591 123.279 34.421C123.428 34.4829 123.565 34.5738 123.679 34.6883C123.794 34.8029 123.885 34.939 123.947 35.0888C124.009 35.2386 124.041 35.3991 124.041 35.5613C124.041 35.7235 124.009 35.884 123.947 36.0338C123.885 36.1836 123.794 36.3197 123.679 36.4342C123.565 36.5488 123.428 36.6397 123.279 36.7016C123.129 36.7634 122.968 36.7952 122.806 36.795Z" fill="#F0F0F7"/>
<path d="M122.806 41.6701H84.9788C84.6516 41.6701 84.3378 41.5401 84.1065 41.3087C83.8751 41.0774 83.7451 40.7636 83.7451 40.4364C83.7451 40.1092 83.8751 39.7954 84.1065 39.564C84.3378 39.3326 84.6516 39.2026 84.9788 39.2026H122.806C123.133 39.2026 123.447 39.3326 123.678 39.564C123.909 39.7954 124.039 40.1092 124.039 40.4364C124.039 40.7636 123.909 41.0774 123.678 41.3087C123.447 41.5401 123.133 41.6701 122.806 41.6701Z" fill="#F0F0F7"/>
<path d="M101.376 46.5446H84.9788C84.6516 46.5446 84.3378 46.4146 84.1065 46.1832C83.8751 45.9519 83.7451 45.6381 83.7451 45.3109C83.7451 44.9837 83.8751 44.6699 84.1065 44.4385C84.3378 44.2071 84.6516 44.0771 84.9788 44.0771H101.376C101.703 44.0771 102.017 44.2071 102.248 44.4385C102.48 44.6699 102.61 44.9837 102.61 45.3109C102.61 45.6381 102.48 45.9519 102.248 46.1832C102.017 46.4146 101.703 46.5446 101.376 46.5446Z" fill="#F0F0F7"/>
<path d="M122.806 56.7544H84.9791C84.8169 56.7547 84.6563 56.7229 84.5064 56.661C84.3566 56.5991 84.2204 56.5083 84.1056 56.3937C83.9909 56.2791 83.8998 56.1431 83.8377 55.9933C83.7756 55.8435 83.7437 55.6829 83.7437 55.5208C83.7437 55.3586 83.7756 55.1981 83.8377 55.0483C83.8998 54.8985 83.9909 54.7624 84.1056 54.6478C84.2204 54.5332 84.3566 54.4424 84.5064 54.3805C84.6563 54.3186 84.8169 54.2869 84.9791 54.2871H122.806C122.968 54.2869 123.129 54.3186 123.279 54.3805C123.428 54.4424 123.565 54.5332 123.679 54.6478C123.794 54.7624 123.885 54.8985 123.947 55.0483C124.009 55.1981 124.041 55.3586 124.041 55.5208C124.041 55.6829 124.009 55.8435 123.947 55.9933C123.885 56.1431 123.794 56.2791 123.679 56.3937C123.565 56.5083 123.428 56.5991 123.279 56.661C123.129 56.7229 122.968 56.7547 122.806 56.7544Z" fill="#F0F0F7"/>
<path d="M122.806 61.6291H84.9788C84.6516 61.6291 84.3378 61.4991 84.1065 61.2677C83.8751 61.0363 83.7451 60.7225 83.7451 60.3953C83.7451 60.0681 83.8751 59.7543 84.1065 59.523C84.3378 59.2916 84.6516 59.1616 84.9788 59.1616H122.806C123.133 59.1616 123.447 59.2916 123.678 59.523C123.909 59.7543 124.039 60.0681 124.039 60.3953C124.039 60.7225 123.909 61.0363 123.678 61.2677C123.447 61.4991 123.133 61.6291 122.806 61.6291Z" fill="#F0F0F7"/>
<path d="M101.376 66.5041H84.979C84.6521 66.5036 84.3388 66.3734 84.1078 66.1421C83.8768 65.9108 83.7471 65.5972 83.7471 65.2703C83.7471 64.9434 83.8768 64.6299 84.1078 64.3986C84.3388 64.1673 84.6521 64.0371 84.979 64.0366H101.376C101.703 64.0366 102.017 64.1666 102.248 64.398C102.48 64.6293 102.61 64.9431 102.61 65.2703C102.61 65.5975 102.48 65.9114 102.248 66.1427C102.017 66.3741 101.703 66.5041 101.376 66.5041Z" fill="#F0F0F7"/>
<path d="M122.806 76.7134H84.9791C84.8169 76.7136 84.6563 76.6819 84.5064 76.62C84.3566 76.5581 84.2204 76.4673 84.1056 76.3527C83.9909 76.2381 83.8998 76.102 83.8377 75.9523C83.7756 75.8025 83.7437 75.6419 83.7437 75.4798C83.7437 75.3176 83.7756 75.157 83.8377 75.0072C83.8998 74.8575 83.9909 74.7214 84.1056 74.6068C84.2204 74.4922 84.3566 74.4014 84.5064 74.3395C84.6563 74.2776 84.8169 74.2459 84.9791 74.2461H122.806C122.968 74.2459 123.129 74.2776 123.279 74.3395C123.428 74.4014 123.565 74.4922 123.679 74.6068C123.794 74.7214 123.885 74.8575 123.947 75.0072C124.009 75.157 124.041 75.3176 124.041 75.4798C124.041 75.6419 124.009 75.8025 123.947 75.9523C123.885 76.102 123.794 76.2381 123.679 76.3527C123.565 76.4673 123.428 76.5581 123.279 76.62C123.129 76.6819 122.968 76.7136 122.806 76.7134Z" fill="#F0F0F7"/>
<path d="M122.806 81.5885H84.9788C84.6516 81.5885 84.3378 81.4586 84.1065 81.2272C83.8751 80.9958 83.7451 80.682 83.7451 80.3548C83.7451 80.0276 83.8751 79.7138 84.1065 79.4824C84.3378 79.2511 84.6516 79.1211 84.9788 79.1211H122.806C123.133 79.1211 123.447 79.2511 123.678 79.4824C123.909 79.7138 124.039 80.0276 124.039 80.3548C124.039 80.682 123.909 80.9958 123.678 81.2272C123.447 81.4586 123.133 81.5885 122.806 81.5885Z" fill="#F0F0F7"/>
<path d="M101.376 86.463H84.9788C84.6516 86.463 84.3378 86.3331 84.1065 86.1017C83.8751 85.8703 83.7451 85.5565 83.7451 85.2293C83.7451 84.9021 83.8751 84.5883 84.1065 84.357C84.3378 84.1256 84.6516 83.9956 84.9788 83.9956H101.376C101.703 83.9956 102.017 84.1256 102.248 84.357C102.48 84.5883 102.61 84.9021 102.61 85.2293C102.61 85.5565 102.48 85.8703 102.248 86.1017C102.017 86.3331 101.703 86.463 101.376 86.463Z" fill="#F0F0F7"/>
<path d="M92.9967 61.4467L51.8999 26.2947H24.29V25.7769H52.0911L93.3333 61.0532L92.9967 61.4467Z" fill="black"/>
<path d="M24.2898 30.1788C26.5779 30.1788 28.4327 28.324 28.4327 26.0359C28.4327 23.7479 26.5779 21.8931 24.2898 21.8931C22.0018 21.8931 20.147 23.7479 20.147 26.0359C20.147 28.324 22.0018 30.1788 24.2898 30.1788Z" fill="#83879B"/>
<path d="M39.0605 39.9707H1.23366C1.07166 39.9707 0.911236 39.9388 0.761561 39.8768C0.611887 39.8148 0.475887 39.724 0.361331 39.6094C0.246775 39.4949 0.155905 39.3589 0.0939081 39.2092C0.0319109 39.0595 0 38.8991 0 38.7371C0 38.5751 0.0319109 38.4147 0.0939081 38.265C0.155905 38.1153 0.246775 37.9793 0.361331 37.8648C0.475887 37.7502 0.611887 37.6593 0.761561 37.5973C0.911236 37.5353 1.07166 37.5034 1.23366 37.5034H39.0605C39.2225 37.5034 39.383 37.5353 39.5326 37.5973C39.6823 37.6593 39.8183 37.7502 39.9329 37.8648C40.0474 37.9793 40.1383 38.1153 40.2003 38.265C40.2623 38.4147 40.2942 38.5751 40.2942 38.7371C40.2942 38.8991 40.2623 39.0595 40.2003 39.2092C40.1383 39.3589 40.0474 39.4949 39.9329 39.6094C39.8183 39.724 39.6823 39.8148 39.5326 39.8768C39.383 39.9388 39.2225 39.9707 39.0605 39.9707Z" fill="#83879B"/>
<path d="M39.0606 44.8454H1.23372C0.906517 44.8454 0.592714 44.7154 0.361346 44.484C0.129979 44.2527 0 43.9389 0 43.6116C0 43.2844 0.129979 42.9706 0.361346 42.7393C0.592714 42.5079 0.906517 42.3779 1.23372 42.3779H39.0606C39.3878 42.3779 39.7016 42.5079 39.933 42.7393C40.1643 42.9706 40.2943 43.2844 40.2943 43.6116C40.2943 43.9389 40.1643 44.2527 39.933 44.484C39.7016 44.7154 39.3878 44.8454 39.0606 44.8454Z" fill="#83879B"/>
<path d="M17.6308 49.7204H1.23372C0.906517 49.7204 0.592714 49.5904 0.361346 49.359C0.129979 49.1277 0 48.8139 0 48.4866C0 48.1594 0.129979 47.8456 0.361346 47.6143C0.592714 47.3829 0.906517 47.2529 1.23372 47.2529H17.6308C17.958 47.2529 18.2718 47.3829 18.5031 47.6143C18.7345 47.8456 18.8645 48.1594 18.8645 48.4866C18.8645 48.8139 18.7345 49.1277 18.5031 49.359C18.2718 49.5904 17.958 49.7204 17.6308 49.7204Z" fill="#83879B"/>
<path d="M103.893 39.1601L145.135 3.88379H172.936V4.4016H145.326L104.229 39.5537L103.893 39.1601Z" fill="black"/>
<path d="M172.936 8.28572C175.224 8.28572 177.079 6.43089 177.079 4.14286C177.079 1.85482 175.224 0 172.936 0C170.648 0 168.793 1.85482 168.793 4.14286C168.793 6.43089 170.648 8.28572 172.936 8.28572Z" fill="#83879B"/>
<path d="M201.105 17.9327H163.278C163.116 17.9329 162.955 17.9011 162.805 17.8393C162.655 17.7774 162.519 17.6865 162.404 17.5719C162.29 17.4574 162.199 17.3213 162.137 17.1715C162.074 17.0217 162.042 16.8611 162.042 16.699C162.042 16.5368 162.074 16.3763 162.137 16.2265C162.199 16.0767 162.29 15.9406 162.404 15.826C162.519 15.7115 162.655 15.6206 162.805 15.5587C162.955 15.4968 163.116 15.4651 163.278 15.4653H201.105C201.267 15.4651 201.428 15.4968 201.577 15.5587C201.727 15.6206 201.863 15.7115 201.978 15.826C202.093 15.9406 202.184 16.0767 202.246 16.2265C202.308 16.3763 202.34 16.5368 202.34 16.699C202.34 16.8611 202.308 17.0217 202.246 17.1715C202.184 17.3213 202.093 17.4574 201.978 17.5719C201.863 17.6865 201.727 17.7774 201.577 17.8393C201.428 17.9011 201.267 17.9329 201.105 17.9327Z" fill="#83879B"/>
<path d="M201.105 22.8073H163.278C162.951 22.8073 162.637 22.6773 162.406 22.4459C162.174 22.2146 162.044 21.9008 162.044 21.5736C162.044 21.2464 162.174 20.9326 162.406 20.7012C162.637 20.4698 162.951 20.3398 163.278 20.3398H201.105C201.267 20.3398 201.427 20.3718 201.577 20.4338C201.727 20.4958 201.863 20.5866 201.977 20.7012C202.092 20.8158 202.183 20.9518 202.245 21.1014C202.307 21.2511 202.339 21.4115 202.339 21.5736C202.339 21.7356 202.307 21.896 202.245 22.0457C202.183 22.1954 202.092 22.3314 201.977 22.4459C201.863 22.5605 201.727 22.6514 201.577 22.7134C201.427 22.7754 201.267 22.8073 201.105 22.8073Z" fill="#83879B"/>
<path d="M179.675 27.6823H163.278C162.951 27.6823 162.637 27.5523 162.406 27.3209C162.174 27.0896 162.044 26.7758 162.044 26.4486C162.044 26.1214 162.174 25.8076 162.406 25.5762C162.637 25.3448 162.951 25.2148 163.278 25.2148H179.675C180.002 25.2148 180.316 25.3448 180.548 25.5762C180.779 25.8076 180.909 26.1214 180.909 26.4486C180.909 26.7758 180.779 27.0896 180.548 27.3209C180.316 27.5523 180.002 27.6823 179.675 27.6823Z" fill="#83879B"/>
<path d="M171.449 116.993C171.235 116.761 171.076 116.485 170.981 116.184C170.886 115.884 170.858 115.566 170.899 115.254C170.94 114.941 171.048 114.642 171.218 114.376C171.387 114.11 171.613 113.885 171.878 113.716L170.112 106.263L173.851 107.629L174.955 114.497C175.209 114.962 175.284 115.505 175.166 116.022C175.047 116.539 174.743 116.994 174.31 117.302C173.878 117.61 173.348 117.748 172.821 117.691C172.293 117.634 171.805 117.385 171.449 116.993Z" fill="#3083D2"/>
<path d="M162.458 85.7611L163.959 89.6192C163.959 89.6192 163.316 93.4773 164.388 94.3347C165.459 95.1921 165.031 95.192 165.031 95.8351C165.067 96.2963 165.201 96.7446 165.423 97.1508C165.644 97.557 165.949 97.912 166.317 98.1928C167.174 98.8358 171.032 111.911 171.032 111.911H174.89C174.766 110.914 174.766 109.906 174.89 108.91C175.104 107.409 174.247 103.551 173.818 102.908C173.39 102.265 173.818 101.408 173.818 100.122C173.818 98.8358 172.961 98.1928 172.961 96.0494C172.961 93.906 170.389 77.1876 170.603 75.2585C170.818 73.3295 168.46 71.6147 168.46 71.6147H166.317L162.458 85.7611Z" fill="#F0F0F7"/>
<path d="M153.381 93.9444L149.814 109.859L172.666 108.437L166.452 92.8076L153.381 93.9444Z" fill="#3083D2"/>
<path d="M203.192 153.758C202.511 156.217 201.449 158.554 200.044 160.684C196.904 165.432 192.41 169.063 187.471 171.969C187.129 172.173 186.782 172.372 186.435 172.568H182.97L182.849 172.291V172.289L182.708 171.969L182.691 171.931L182.683 171.969L182.545 172.568H180.844C180.703 172.369 180.564 172.17 180.429 171.969C180.23 171.675 180.039 171.378 179.857 171.076C179.538 170.548 179.252 170 179.002 169.435C178.972 169.372 178.947 169.309 178.922 169.247L179.035 169.123L178.564 167.065L179.51 166.909L178.474 163.711C178.511 163.593 178.554 163.475 178.599 163.356C179.181 161.885 180.273 160.785 181.568 159.862C182.902 158.908 184.454 158.143 185.881 157.348C186.55 156.973 187.209 156.578 187.851 156.16V156.158C188.671 155.627 189.467 155.059 190.239 154.454C190.252 154.446 190.265 154.437 190.277 154.427C190.287 154.419 190.297 154.411 190.307 154.402C193.766 151.699 196.693 148.378 198.94 144.607C198.94 144.607 198.94 144.606 198.941 144.606C198.941 144.606 198.941 144.606 198.941 144.606C198.942 144.606 198.942 144.605 198.942 144.605C198.942 144.605 198.942 144.604 198.942 144.604C199.018 144.483 199.088 144.362 199.158 144.239V144.237C200.078 142.654 200.87 141.001 201.526 139.293V139.29C201.576 139.164 201.622 139.038 201.669 138.913C201.735 139.023 201.798 139.134 201.858 139.245C201.858 139.245 201.859 139.245 201.859 139.245C201.859 139.245 201.86 139.245 201.86 139.245C201.86 139.246 201.86 139.246 201.861 139.246C201.861 139.247 201.861 139.247 201.861 139.247C204.301 143.613 204.533 148.871 203.192 153.758Z" fill="#F0F0F7"/>
<path d="M201.861 139.247C201.885 141.577 201.643 143.902 201.139 146.176C200.912 147.217 200.63 148.245 200.293 149.256C199.64 151.233 198.786 153.139 197.744 154.942C197.687 155.041 197.631 155.136 197.571 155.232V155.234C197.126 155.985 196.643 156.712 196.124 157.413C195.339 158.53 194.369 159.506 193.256 160.297C192.346 160.897 191.318 161.295 190.241 161.462C190.04 161.499 189.834 161.527 189.625 161.552C188.792 161.65 187.932 161.688 187.106 161.864C186.688 161.947 186.281 162.078 185.894 162.254C184.565 162.871 183.818 164.161 183.491 165.54C183.433 165.782 183.388 166.026 183.352 166.27C183.078 168.144 183.38 170.092 183.224 171.969C183.206 172.168 183.184 172.369 183.156 172.568H182.97L182.849 172.291V172.288C182.862 172.183 182.872 172.077 182.882 171.969C182.942 171.047 182.95 170.122 182.904 169.199C182.894 168.783 182.887 168.366 182.892 167.948C182.897 167.613 182.91 167.279 182.935 166.947V166.944C182.952 166.738 182.972 166.534 183 166.33C183.08 165.706 183.234 165.094 183.458 164.506C183.677 163.9 184.021 163.348 184.469 162.885C184.916 162.422 185.457 162.058 186.055 161.819C186.42 161.682 186.796 161.577 187.179 161.504C188.022 161.343 188.893 161.303 189.741 161.197C189.831 161.187 189.922 161.175 190.01 161.16C190.123 161.142 190.234 161.122 190.345 161.102C191.454 160.905 192.502 160.451 193.404 159.776C194.476 158.927 195.409 157.915 196.167 156.777C196.579 156.185 196.972 155.581 197.337 154.96C197.337 154.96 197.337 154.959 197.337 154.959C197.337 154.959 197.337 154.958 197.338 154.958C197.338 154.958 197.338 154.958 197.338 154.958C197.339 154.958 197.339 154.957 197.339 154.957C197.357 154.927 197.375 154.9 197.392 154.869L197.395 154.864C198.96 152.19 200.102 149.29 200.781 146.267C200.804 146.156 200.829 146.045 200.854 145.935C201.321 143.752 201.547 141.524 201.526 139.292V139.29C201.526 139.184 201.524 139.081 201.521 138.975C201.516 138.759 201.851 138.711 201.856 138.927C201.858 139.033 201.861 139.139 201.858 139.244C201.859 139.244 201.859 139.245 201.859 139.245C201.859 139.245 201.86 139.245 201.86 139.245C201.86 139.245 201.86 139.246 201.861 139.246C201.861 139.246 201.861 139.247 201.861 139.247Z" fill="white"/>
<path d="M197.427 155.164C198.386 155.651 199.487 155.781 200.533 155.532C201.579 155.282 202.502 154.669 203.137 153.801C203.265 153.625 202.998 153.418 202.87 153.594C202.279 154.403 201.419 154.974 200.445 155.205C199.47 155.435 198.446 155.31 197.556 154.851C197.362 154.752 197.235 155.065 197.427 155.164Z" fill="white"/>
<path d="M190.377 161.202C189.676 159.119 189.787 156.848 190.686 154.842C190.776 154.643 190.463 154.515 190.374 154.714C189.441 156.803 189.331 159.166 190.065 161.333C190.135 161.539 190.447 161.408 190.377 161.202V161.202Z" fill="white"/>
<path d="M200.952 145.966C200.541 145.855 200.165 145.644 199.857 145.351C199.548 145.059 199.317 144.694 199.185 144.29C199.117 144.083 198.806 144.215 198.873 144.421C199.021 144.866 199.277 145.269 199.617 145.592C199.957 145.916 200.371 146.152 200.823 146.279C200.865 146.294 200.911 146.293 200.952 146.276C200.993 146.259 201.026 146.227 201.044 146.187C201.061 146.145 201.06 146.099 201.043 146.057C201.026 146.016 200.993 145.983 200.952 145.966H200.952Z" fill="white"/>
<path d="M187.851 156.158V156.161C187.773 157.957 187.549 159.745 187.18 161.505V161.507C187.159 161.628 187.132 161.746 187.107 161.865C186.499 164.587 185.648 167.249 184.563 169.818C184.263 170.543 183.95 171.26 183.622 171.969C183.531 172.17 183.438 172.369 183.342 172.568H182.97L182.849 172.291V172.289L182.708 171.969L182.691 171.931L182.683 171.969L182.545 172.568H178.947L178.247 171.969L177.228 171.096L178.652 169.541L178.886 169.284L178.922 169.247L179.035 169.123L178.564 167.065L179.51 166.909L178.474 163.711L177.983 162.199L177.86 161.819L177.143 159.608L174.979 160.013L174.627 158.78C175.275 157.276 175.815 155.728 176.242 154.148C176.245 154.135 176.25 154.125 176.252 154.112C177.395 149.855 177.738 145.422 177.264 141.039V141.036C177.248 140.895 177.231 140.752 177.211 140.614V140.609C176.995 138.792 176.632 136.996 176.124 135.239C176.089 135.106 176.048 134.975 176.011 134.844C176.126 134.895 176.239 134.942 176.355 134.993L176.358 134.995H176.363C176.546 135.076 176.73 135.161 176.909 135.252C181.201 137.338 184.359 141.253 186.153 145.767C186.158 145.779 186.163 145.789 186.168 145.802C187.104 148.168 187.662 150.667 187.821 153.207C187.881 154.189 187.892 155.174 187.851 156.158Z" fill="#F0F0F7"/>
<path d="M181.322 172.568H180.924C180.798 172.364 180.662 172.165 180.527 171.969C180.31 171.664 180.087 171.367 179.857 171.076C179.659 170.824 179.46 170.575 179.261 170.326C179.055 170.067 178.851 169.808 178.652 169.541L178.886 169.284C178.924 169.335 178.962 169.385 179.002 169.435C179.646 170.283 180.343 171.098 180.939 171.969C181.073 172.165 181.201 172.364 181.322 172.568Z" fill="white"/>
<path d="M175.927 134.984C175.992 135.068 176.06 135.153 176.123 135.239C176.614 135.875 177.078 136.532 177.515 137.209C178.293 138.403 178.984 139.652 179.583 140.945C179.631 141.046 179.678 141.149 179.724 141.252C181.005 144.079 181.84 147.087 182.199 150.169C182.205 150.199 182.207 150.227 182.21 150.257C182.293 150.977 182.346 151.699 182.371 152.424C182.451 153.788 182.316 155.157 181.971 156.479C181.92 156.653 181.865 156.824 181.804 156.99C181.653 157.397 181.464 157.789 181.238 158.16C181.077 158.431 180.897 158.691 180.7 158.938C180.582 159.089 180.458 159.237 180.328 159.381C180.252 159.464 180.174 159.547 180.096 159.63C180.031 159.693 179.968 159.758 179.902 159.821C179.223 160.48 178.473 161.091 177.859 161.819L177.983 162.199C178.574 161.449 179.336 160.827 180.023 160.173C180.454 159.768 180.847 159.323 181.196 158.845C181.241 158.779 181.289 158.714 181.331 158.646C181.565 158.305 181.766 157.944 181.933 157.566C182.018 157.378 182.096 157.184 182.167 156.983C182.578 155.682 182.765 154.321 182.72 152.957C182.712 152.083 182.66 151.211 182.564 150.343C182.554 150.229 182.542 150.119 182.527 150.006C182.271 147.939 181.806 145.904 181.138 143.932C180.292 141.43 179.128 139.047 177.676 136.841C177.26 136.21 176.82 135.593 176.355 134.992C176.294 134.909 176.231 134.828 176.166 134.745C176.033 134.574 175.794 134.813 175.927 134.984Z" fill="white"/>
<path d="M182.407 150.375C183.465 150.186 184.423 149.628 185.108 148.799C185.792 147.97 186.16 146.924 186.146 145.849C186.144 145.805 186.127 145.763 186.095 145.733C186.064 145.702 186.022 145.684 185.978 145.684C185.935 145.683 185.892 145.7 185.86 145.73C185.828 145.76 185.809 145.801 185.807 145.845C185.823 146.846 185.48 147.82 184.841 148.591C184.201 149.361 183.308 149.878 182.321 150.048C182.106 150.085 182.194 150.412 182.407 150.375Z" fill="white"/>
<path d="M180.413 159.441C178.599 158.199 177.32 156.319 176.831 154.176C176.782 153.964 176.455 154.05 176.504 154.262C177.017 156.491 178.352 158.445 180.243 159.733C180.423 159.856 180.592 159.563 180.413 159.441Z" fill="white"/>
<path d="M179.683 140.909C179.289 141.067 178.861 141.125 178.439 141.077C178.016 141.029 177.613 140.877 177.264 140.635C177.085 140.51 176.916 140.803 177.093 140.927C177.48 141.193 177.926 141.36 178.393 141.414C178.859 141.468 179.332 141.407 179.769 141.236C179.812 141.223 179.848 141.195 179.87 141.157C179.893 141.118 179.899 141.073 179.89 141.029C179.878 140.986 179.85 140.949 179.811 140.927C179.772 140.904 179.726 140.898 179.683 140.909Z" fill="white"/>
<path d="M157.186 167.394H154.619L153.397 157.493L157.186 157.493L157.186 167.394Z" fill="#3083D2"/>
<path d="M158.567 172.268H156.745L156.42 170.549L155.587 172.268H150.756C150.525 172.268 150.299 172.194 150.113 172.057C149.926 171.92 149.789 171.727 149.72 171.506C149.651 171.284 149.654 171.047 149.73 170.828C149.805 170.609 149.949 170.42 150.139 170.289L153.997 167.624V165.886L158.055 166.128L158.567 172.268Z" fill="black"/>
<path d="M181.447 166.117L178.938 166.661L175.646 157.244L179.348 156.441L181.447 166.117Z" fill="#3083D2"/>
<path d="M183.83 170.588L182.05 170.974L181.368 169.362L180.919 171.219L176.197 172.243C175.971 172.293 175.735 172.268 175.524 172.173C175.312 172.079 175.137 171.919 175.022 171.718C174.908 171.516 174.861 171.284 174.889 171.054C174.916 170.824 175.016 170.609 175.175 170.44L178.38 167.018L178.011 165.319L182.028 164.695L183.83 170.588Z" fill="black"/>
<path d="M199.526 172.269C199.526 172.308 199.519 172.347 199.504 172.383C199.489 172.42 199.467 172.453 199.439 172.481C199.411 172.508 199.378 172.531 199.341 172.546C199.305 172.561 199.266 172.568 199.227 172.568H128.703C128.624 172.568 128.548 172.537 128.492 172.48C128.435 172.424 128.404 172.348 128.404 172.269C128.404 172.189 128.435 172.113 128.492 172.057C128.548 172.001 128.624 171.969 128.703 171.969H199.227C199.266 171.969 199.305 171.977 199.341 171.992C199.378 172.007 199.411 172.029 199.439 172.057C199.467 172.084 199.489 172.118 199.504 172.154C199.519 172.19 199.526 172.229 199.526 172.269Z" fill="#83879B"/>
<path d="M149.231 123.166C151.032 133.067 151.483 137.342 151.483 137.342C151.483 137.342 150.131 138.917 151.032 139.818C151.933 140.718 151.032 142.517 151.032 142.517L153.058 164.344L154.688 164.08L158.616 163.449L160.032 163.22L159.131 142.744C159.131 142.744 160.032 140.942 159.582 140.492C159.131 140.042 160.032 137.342 160.032 137.342L161.157 115.965L168.134 139.367C168.134 139.367 167.457 140.268 168.134 140.942C168.808 141.617 170.157 144.993 170.157 144.993L174.306 159.511L174.658 160.744L176.822 160.339L179.177 159.896L179.61 159.816L180.38 159.67L180.876 159.576L181.044 159.546L181.859 159.393L181.613 158.298L181.484 157.722L177.974 142.132L177.894 141.773L177.808 141.393C177.808 141.393 178.259 140.268 177.584 139.591C177.387 139.385 177.243 139.134 177.165 138.859C177.086 138.585 177.076 138.295 177.134 138.016C177.156 137.993 177.176 137.967 177.194 137.941C177.274 137.831 177.329 137.706 177.356 137.573C177.416 137.291 177.363 136.896 176.908 136.441C176.779 136.305 176.672 136.15 176.588 135.983C175.904 134.687 175.559 131.942 175.559 131.942C175.559 131.942 174.95 110.201 172.957 106.879C172.852 106.706 170.736 103.373 170.626 103.305C168.376 101.956 149.814 103.819 149.814 103.819C149.814 103.819 148.753 106.671 148.705 106.968C148.446 108.636 147.703 114.767 149.231 123.166Z" fill="black"/>
<path d="M149.336 116.965C149.55 116.733 149.709 116.457 149.804 116.156C149.9 115.856 149.928 115.538 149.887 115.226C149.846 114.913 149.737 114.614 149.567 114.348C149.398 114.082 149.173 113.857 148.907 113.688L150.673 106.235L146.935 107.601L145.83 114.469C145.576 114.934 145.501 115.477 145.619 115.994C145.738 116.511 146.043 116.966 146.475 117.274C146.907 117.582 147.437 117.72 147.964 117.663C148.492 117.606 148.98 117.358 149.336 116.965Z" fill="#3083D2"/>
<path d="M152.325 71.5871C152.325 71.5871 154.177 68.8285 157.82 65.1847C159.749 64.5417 163.092 64.9165 164.251 65.1847C169.609 72.2579 169.946 71.7879 171.341 75.7399C171.703 76.7647 171.884 77.7493 171.723 78.5531C171.08 81.7682 172.111 98.0127 172.325 98.8701C172.539 99.7274 174.04 100.799 172.539 100.799C171.039 100.799 148.319 99.9417 148.748 99.2987C149.176 98.6557 152.325 71.5871 152.325 71.5871Z" fill="#F0F0F7"/>
<path d="M154.469 71.5869H152.325C152.325 71.5869 149.968 73.3016 150.182 75.2307C150.396 77.1597 147.824 93.8782 147.824 96.0216C147.824 98.165 146.967 98.808 146.967 100.094C146.967 101.38 147.396 102.237 146.967 102.88C146.538 103.523 145.681 107.382 145.895 108.882C146.02 109.878 146.02 110.886 145.895 111.883H149.753C149.753 111.883 153.611 98.808 154.469 98.165C154.837 97.8842 155.141 97.5292 155.363 97.123C155.584 96.7168 155.718 96.2685 155.755 95.8072C155.755 95.1642 155.326 95.1642 156.398 94.3069C157.469 93.4495 156.826 89.5914 156.826 89.5914L158.327 85.7333L154.469 71.5869Z" fill="#F0F0F7"/>
<path d="M158.871 62.4414C162.299 62.4414 165.078 59.6626 165.078 56.2349C165.078 52.8071 162.299 50.0283 158.871 50.0283C155.443 50.0283 152.665 52.8071 152.665 56.2349C152.665 59.6626 155.443 62.4414 158.871 62.4414Z" fill="#3083D2"/>
<path d="M154.524 67.8657L153.942 65.3139C153.75 64.4599 153.732 63.5763 153.887 62.715C154.043 61.8538 154.369 61.0324 154.847 60.2991C155.286 59.6079 155.53 58.8111 155.555 57.9926C155.58 57.1741 155.383 56.3641 154.987 55.6476C154.311 54.4182 153.146 53.6842 151.87 53.6842H151.715V53.5292C151.715 51.3037 153.449 49.7329 155.062 49.6429C155.12 49.1798 155.448 48.7646 156.02 48.435C157.385 47.6479 160.025 47.4772 162.02 48.5263C162.056 48.1871 162.184 47.8641 162.39 47.5918C162.595 47.3194 162.871 47.1077 163.187 46.9791C163.515 46.8651 163.868 46.8449 164.206 46.9205C164.235 46.3626 164.466 45.8341 164.855 45.4331C165.405 44.8995 166.289 44.6967 167.279 44.8756C168.638 45.1223 169.978 45.9882 171.051 47.3143C172.003 48.49 172.664 49.8755 173.303 51.2153C173.931 52.5331 174.581 53.8956 175.523 55.0493C176.555 56.3132 177.834 57.1321 179.123 57.3552C180.628 57.6155 182.171 56.9962 182.878 55.8496L183.018 55.622L183.146 55.8569C183.939 57.3152 183.615 59.3192 182.374 60.6216C181.261 61.7899 179.514 62.3849 177.703 62.2121C176.169 62.0664 174.623 61.4147 173.106 60.2755C171.599 59.1441 170.667 57.8934 170.336 56.5581C170.244 56.1449 170.177 55.7263 170.137 55.3048C170.035 54.4219 169.938 53.5878 169.395 52.974C168.907 52.422 168.151 52.1829 167.481 52.0022L167.35 51.9669C167.326 52.2156 167.248 52.4561 167.121 52.6715C166.995 52.887 166.823 53.0723 166.617 53.2145C166.494 53.2887 166.359 53.3408 166.217 53.3685C166.994 56.4945 166.675 58.8879 165.267 60.4835C162.892 63.1772 158.327 62.6232 158.134 62.5985L158.005 62.5819L157.999 62.4525C157.981 62.1052 157.939 61.7596 157.872 61.4185C157.218 62.9938 155.019 67.1595 154.724 67.5797L154.524 67.8657Z" fill="black"/>
</g>
<defs>
<clipPath id="clip0_1_4836">
<rect width="204.006" height="172.568" fill="white"/>
</clipPath>
</defs>
</svg>
