<svg width="14" height="15" viewBox="0 0 14 15" fill="none" xmlns="http://www.w3.org/2000/svg">
<path d="M13.75 11.5176C13.75 11.8836 13.4533 12.1804 13.0872 12.1804H0.91279C0.546741 12.1804 0.25 11.8836 0.25 11.5176V11.5176C0.25 11.1515 0.546742 10.8548 0.912791 10.8548H0.925V6.23579C0.925 2.92979 3.64525 0.250122 7 0.250122C10.3548 0.250122 13.075 2.92979 13.075 6.23579V10.8548H13.0872C13.4533 10.8548 13.75 11.1515 13.75 11.5176V11.5176ZM2.275 10.8548H11.725V6.23579C11.725 3.66217 9.60955 1.5757 7 1.5757C4.39045 1.5757 2.275 3.66217 2.275 6.23579V10.8548ZM5.48203 13.567C5.29841 13.1957 5.64829 12.8431 6.0625 12.8431H7.9375C8.35171 12.8431 8.70159 13.1957 8.51797 13.567C8.43663 13.7315 8.3274 13.8831 8.19324 14.0148C7.87678 14.3255 7.44755 14.5001 7 14.5001C6.55245 14.5001 6.12323 14.3255 5.80676 14.0148C5.6726 13.8831 5.56337 13.7315 5.48203 13.567Z" fill="black"/>
</svg>
