<svg width="24" height="24" viewBox="0 0 24 24" fill="none" xmlns="http://www.w3.org/2000/svg">
<path d="M12.495 16.0952L16.0949 12.4952L16.1011 12.4891L16.1011 12.4891C16.168 12.4246 16.2213 12.3473 16.258 12.2619C16.2947 12.1765 16.314 12.0847 16.3148 11.9917C16.3156 11.8988 16.2979 11.8066 16.2627 11.7206C16.2275 11.6346 16.1755 11.5564 16.1098 11.4907C16.0441 11.4249 15.9659 11.373 15.8799 11.3378C15.7939 11.3026 15.7017 11.2849 15.6088 11.2857C15.5158 11.2865 15.424 11.3058 15.3386 11.3425C15.2532 11.3792 15.1759 11.4325 15.1113 11.4993L15.1053 11.5056L15.1053 11.5055L13.5537 13.0571L12.7001 13.9107V12.7036V3.60039C12.7001 3.41474 12.6263 3.23669 12.4951 3.10542C12.3638 2.97414 12.1857 2.90039 12.0001 2.90039C11.8144 2.90039 11.6364 2.97414 11.5051 3.10542C11.3738 3.23669 11.3001 3.41474 11.3001 3.60039V12.7036V13.9107L10.4465 13.0571L8.895 11.5056C8.89498 11.5056 8.89496 11.5056 8.89494 11.5055C8.76368 11.3743 8.58569 11.3006 8.4001 11.3006C8.21453 11.3006 8.03656 11.3743 7.9053 11.5055C7.90527 11.5055 7.90523 11.5056 7.9052 11.5056M12.495 16.0952L7.5517 12.8488C7.32673 12.6238 7.20035 12.3186 7.20035 12.0004C7.20035 11.6822 7.32673 11.377 7.5517 11.152L7.9052 11.5056M12.495 16.0952C12.495 16.0952 12.495 16.0952 12.4949 16.0952C12.3637 16.2264 12.1857 16.3001 12.0001 16.3001C11.8145 16.3001 11.6365 16.2264 11.5053 16.0952C11.5052 16.0952 11.5052 16.0952 11.5052 16.0952L7.9053 12.4953C7.90529 12.4953 7.90527 12.4953 7.90525 12.4952M12.495 16.0952L7.90525 12.4952M7.9052 11.5056C7.77403 11.6369 7.70035 11.8148 7.70035 12.0004C7.70035 12.186 7.77405 12.364 7.90525 12.4952M7.9052 11.5056L7.90525 12.4952M4.1001 20.4004C4.1001 20.2147 4.17385 20.0367 4.30512 19.9054C4.4364 19.7741 4.61445 19.7004 4.8001 19.7004H19.2001C19.3857 19.7004 19.5638 19.7741 19.6951 19.9054C19.8263 20.0367 19.9001 20.2147 19.9001 20.4004C19.9001 20.586 19.8263 20.7641 19.6951 20.8954C19.5638 21.0266 19.3857 21.1004 19.2001 21.1004H4.8001C4.61445 21.1004 4.4364 21.0266 4.30512 20.8954C4.17385 20.7641 4.1001 20.586 4.1001 20.4004Z" fill="white" stroke="white"/>
</svg>
