<svg width="24" height="24" viewBox="0 0 24 24" fill="none" xmlns="http://www.w3.org/2000/svg">
<path fill-rule="evenodd" clip-rule="evenodd" d="M3.48 5.99991H20.76C21.0251 5.99991 21.24 6.21481 21.24 6.47991C21.24 6.74501 21.0251 6.95991 20.76 6.95991H3.48C3.2149 6.95991 3 6.74501 3 6.47991C3 6.21481 3.2149 5.99991 3.48 5.99991ZM17.4 12.1598C17.4 12.4249 17.1851 12.6398 16.92 12.6398H7.31997C7.05487 12.6398 6.83997 12.4249 6.83997 12.1598C6.83997 11.8947 7.05487 11.6798 7.31997 11.6798H16.92C17.1851 11.6798 17.4 11.8947 17.4 12.1598ZM13.0801 17.36H11.1601C10.895 17.36 10.6801 17.5749 10.6801 17.84C10.6801 18.1051 10.895 18.32 11.1601 18.32H13.0801C13.3452 18.32 13.5601 18.1051 13.5601 17.84C13.5601 17.5749 13.3452 17.36 13.0801 17.36Z" fill="#25282B"/>
<path d="M20.76 5.49991H3.48V6.49991H20.76V5.49991ZM21.74 6.47991C21.74 5.93867 21.3012 5.49991 20.76 5.49991V6.49991C20.749 6.49991 20.74 6.49095 20.74 6.47991H21.74ZM20.76 7.45991C21.3012 7.45991 21.74 7.02115 21.74 6.47991H20.74C20.74 6.46886 20.749 6.45991 20.76 6.45991V7.45991ZM3.48 7.45991H20.76V6.45991H3.48V7.45991ZM2.5 6.47991C2.5 7.02115 2.93876 7.45991 3.48 7.45991V6.45991C3.49105 6.45991 3.5 6.46886 3.5 6.47991H2.5ZM3.48 5.49991C2.93876 5.49991 2.5 5.93867 2.5 6.47991H3.5C3.5 6.49095 3.49105 6.49991 3.48 6.49991V5.49991ZM16.92 13.1398C17.4612 13.1398 17.9 12.7011 17.9 12.1598H16.9C16.9 12.1488 16.9089 12.1398 16.92 12.1398V13.1398ZM7.31997 13.1398H16.92V12.1398H7.31997V13.1398ZM6.33997 12.1598C6.33997 12.7011 6.77873 13.1398 7.31997 13.1398V12.1398C7.33101 12.1398 7.33997 12.1488 7.33997 12.1598H6.33997ZM7.31997 11.1798C6.77873 11.1798 6.33997 11.6186 6.33997 12.1598H7.33997C7.33997 12.1709 7.33101 12.1798 7.31997 12.1798V11.1798ZM16.92 11.1798H7.31997V12.1798H16.92V11.1798ZM17.9 12.1598C17.9 11.6186 17.4612 11.1798 16.92 11.1798V12.1798C16.9089 12.1798 16.9 12.1709 16.9 12.1598H17.9ZM11.1601 17.86H13.0801V16.86H11.1601V17.86ZM11.1801 17.84C11.1801 17.8511 11.1711 17.86 11.1601 17.86V16.86C10.6188 16.86 10.1801 17.2988 10.1801 17.84H11.1801ZM11.1601 17.82C11.1711 17.82 11.1801 17.829 11.1801 17.84H10.1801C10.1801 18.3813 10.6188 18.82 11.1601 18.82V17.82ZM13.0801 17.82H11.1601V18.82H13.0801V17.82ZM13.0601 17.84C13.0601 17.829 13.069 17.82 13.0801 17.82V18.82C13.6213 18.82 14.0601 18.3813 14.0601 17.84H13.0601ZM13.0801 17.86C13.069 17.86 13.0601 17.8511 13.0601 17.84H14.0601C14.0601 17.2988 13.6213 16.86 13.0801 16.86V17.86Z" fill="#25282B"/>
</svg>
