<svg width="13" height="8" viewBox="0 0 13 8" fill="none" xmlns="http://www.w3.org/2000/svg">
<path fill-rule="evenodd" clip-rule="evenodd" d="M8.10003 6.4C7.88786 6.4 7.68438 6.48428 7.53435 6.63431C7.38432 6.78434 7.30003 6.98782 7.30003 7.2C7.30003 7.41217 7.38432 7.61565 7.53435 7.76568C7.68438 7.91571 7.88786 8 8.10003 8H12.1C12.3122 8 12.5157 7.91571 12.6657 7.76568C12.8157 7.61565 12.9 7.41217 12.9 7.2V3.2C12.9 2.98782 12.8157 2.78434 12.6657 2.63431C12.5157 2.48428 12.3122 2.4 12.1 2.4C11.8879 2.4 11.6844 2.48428 11.5343 2.63431C11.3843 2.78434 11.3 2.98782 11.3 3.2V5.2688L7.86563 1.8344C7.71561 1.68442 7.51216 1.60017 7.30003 1.60017C7.0879 1.60017 6.88445 1.68442 6.73443 1.8344L4.90003 3.6688L1.46563 0.234396C1.31475 0.08867 1.11267 0.00803417 0.902912 0.0098569C0.693154 0.0116796 0.492504 0.095815 0.344178 0.244141C0.195851 0.392468 0.111716 0.593118 0.109894 0.802875C0.108071 1.01263 0.188706 1.21471 0.334433 1.3656L4.33443 5.3656C4.48446 5.51557 4.6879 5.59983 4.90003 5.59983C5.11216 5.59983 5.31561 5.51557 5.46563 5.3656L7.30003 3.5312L10.1688 6.4H8.10003Z" fill="#FF0033"/>
</svg>
