<svg width="20" height="19" viewBox="0 0 20 19" fill="none" xmlns="http://www.w3.org/2000/svg">
<path fill-rule="evenodd" clip-rule="evenodd" d="M10.5952 0.558403C10.4139 0.454855 10.2088 0.400391 9.99999 0.400391C9.79123 0.400391 9.58607 0.454855 9.40479 0.558403L1.00479 5.3584C0.775199 5.48975 0.595434 5.69327 0.49345 5.93733C0.391466 6.18139 0.372978 6.45231 0.44086 6.70796C0.508741 6.96361 0.659189 7.18967 0.868812 7.35099C1.07843 7.51231 1.33548 7.59985 1.59999 7.6V16C1.28173 16 0.976509 16.1264 0.751466 16.3515C0.526422 16.5765 0.399994 16.8817 0.399994 17.2C0.399994 17.5183 0.526422 17.8235 0.751466 18.0485C0.976509 18.2736 1.28173 18.4 1.59999 18.4H18.4C18.7183 18.4 19.0235 18.2736 19.2485 18.0485C19.4736 17.8235 19.6 17.5183 19.6 17.2C19.6 16.8817 19.4736 16.5765 19.2485 16.3515C19.0235 16.1264 18.7183 16 18.4 16V7.6C18.6645 7.59985 18.9216 7.51231 19.1312 7.35099C19.3408 7.18967 19.4912 6.96361 19.5591 6.70796C19.627 6.45231 19.6085 6.18139 19.5065 5.93733C19.4046 5.69327 19.2248 5.48975 18.9952 5.3584L10.5952 0.558403ZM5.19999 8.8C4.88173 8.8 4.57651 8.92643 4.35147 9.15147C4.12642 9.37652 3.99999 9.68174 3.99999 10V13.6C3.99999 13.9183 4.12642 14.2235 4.35147 14.4485C4.57651 14.6736 4.88173 14.8 5.19999 14.8C5.51825 14.8 5.82348 14.6736 6.04852 14.4485C6.27357 14.2235 6.39999 13.9183 6.39999 13.6V10C6.39999 9.68174 6.27357 9.37652 6.04852 9.15147C5.82348 8.92643 5.51825 8.8 5.19999 8.8ZM8.79999 10C8.79999 9.68174 8.92642 9.37652 9.15147 9.15147C9.37651 8.92643 9.68173 8.8 9.99999 8.8C10.3183 8.8 10.6235 8.92643 10.8485 9.15147C11.0736 9.37652 11.2 9.68174 11.2 10V13.6C11.2 13.9183 11.0736 14.2235 10.8485 14.4485C10.6235 14.6736 10.3183 14.8 9.99999 14.8C9.68173 14.8 9.37651 14.6736 9.15147 14.4485C8.92642 14.2235 8.79999 13.9183 8.79999 13.6V10ZM14.8 8.8C14.4817 8.8 14.1765 8.92643 13.9515 9.15147C13.7264 9.37652 13.6 9.68174 13.6 10V13.6C13.6 13.9183 13.7264 14.2235 13.9515 14.4485C14.1765 14.6736 14.4817 14.8 14.8 14.8C15.1183 14.8 15.4235 14.6736 15.6485 14.4485C15.8736 14.2235 16 13.9183 16 13.6V10C16 9.68174 15.8736 9.37652 15.6485 9.15147C15.4235 8.92643 15.1183 8.8 14.8 8.8Z" fill="#2F80ED"/>
</svg>
