<svg width="20" height="19" viewBox="0 0 20 19" fill="none" xmlns="http://www.w3.org/2000/svg">
<path d="M10.8351 0.162263C10.8908 0.120048 10.9402 0.0702292 10.9821 0.0142635H13.5441L13.5791 0.0132635C13.7606 0.00404237 13.9425 0.00404237 14.1241 0.0132635H14.1621C14.7314 0.0120043 15.2938 0.138081 15.8081 0.382264C16.7477 0.750741 17.5605 1.38359 18.1481 2.20426C18.5929 2.82564 18.8955 3.53728 19.0344 4.2887C19.1734 5.04013 19.1453 5.81292 18.9521 6.55226L15.6711 3.31526C15.5306 3.17677 15.3413 3.09917 15.1441 3.09926H10.3991C10.2357 3.10005 10.0769 3.15334 9.94607 3.25126L8.06207 4.67926C7.96088 4.75648 7.84544 4.81298 7.72238 4.84553C7.59932 4.87807 7.47105 4.88603 7.34491 4.86894C7.21877 4.85185 7.09724 4.81004 6.98727 4.74592C6.87731 4.6818 6.78107 4.59663 6.70407 4.49526C6.62744 4.3956 6.57131 4.28175 6.53892 4.16028C6.50653 4.03881 6.49851 3.91213 6.51534 3.78755C6.53217 3.66296 6.57351 3.54295 6.63697 3.43442C6.70042 3.3259 6.78475 3.23102 6.88507 3.15526L10.8351 0.162263Z" fill="#2F80ED"/>
<path d="M5.89799 11.2365L5.88499 11.2495L4.91099 12.2175L4.89799 12.2295C4.72742 12.3916 4.50042 12.4811 4.26506 12.4789C4.0297 12.4766 3.80444 12.3829 3.63699 12.2175C3.55333 12.1345 3.48692 12.0358 3.44161 11.9271C3.39629 11.8184 3.37296 11.7018 3.37296 11.584C3.37296 11.4662 3.39629 11.3495 3.44161 11.2408C3.48692 11.1321 3.55333 11.0334 3.63699 10.9505L4.61099 9.98245C4.78064 9.81446 5.00974 9.72021 5.24849 9.72021C5.48724 9.72021 5.71634 9.81446 5.88599 9.98245C6.0526 10.1478 6.1473 10.3722 6.14955 10.607C6.1518 10.8417 6.06141 11.0679 5.89799 11.2365Z" fill="#2F80ED"/>
<path d="M5.608 12.9341C5.44471 13.1027 5.3545 13.329 5.35694 13.5637C5.35937 13.7985 5.45425 14.0228 5.621 14.1881C5.973 14.5381 6.543 14.5381 6.896 14.1881L7.87 13.2211C7.9646 13.1274 8.03705 13.0138 8.08203 12.8886C8.12702 12.7633 8.1434 12.6295 8.12997 12.4971C8.11655 12.3647 8.07366 12.237 8.00445 12.1233C7.93524 12.0096 7.84146 11.9128 7.73 11.8401C7.55914 11.7276 7.35528 11.6763 7.15157 11.6945C6.94785 11.7127 6.75628 11.7992 6.608 11.9401L6.595 11.9541L5.621 12.9211L5.608 12.9341Z" fill="#2F80ED"/>
<path d="M3.50003 8.40823C3.58369 8.49116 3.6501 8.58984 3.69542 8.69857C3.74073 8.8073 3.76407 8.92394 3.76407 9.04173C3.76407 9.15953 3.74073 9.27616 3.69542 9.38489C3.6501 9.49363 3.58369 9.5923 3.50003 9.67523L2.52703 10.6432C2.35734 10.8115 2.12803 10.906 1.88903 10.906C1.65004 10.906 1.42072 10.8115 1.25103 10.6432C1.16737 10.5603 1.10097 10.4616 1.05565 10.3529C1.01033 10.2442 0.987 10.1275 0.987 10.0097C0.987 9.89193 1.01033 9.7753 1.05565 9.66657C1.10097 9.55784 1.16737 9.45916 1.25103 9.37623L2.22603 8.40823C2.39568 8.24024 2.62478 8.146 2.86353 8.146C3.10229 8.146 3.33139 8.24024 3.50103 8.40823H3.50003Z" fill="#2F80ED"/>
<path d="M9.85403 13.9253C9.93769 14.0083 10.0041 14.1069 10.0494 14.2157C10.0947 14.3244 10.1181 14.441 10.1181 14.5588C10.1181 14.6766 10.0947 14.7933 10.0494 14.902C10.0041 15.0107 9.93769 15.1094 9.85403 15.1923L8.88003 16.1603C8.7109 16.3293 8.48161 16.4242 8.24253 16.4242C8.00346 16.4242 7.77416 16.3293 7.60503 16.1603C7.4722 16.0286 7.38413 15.8585 7.35326 15.6741C7.3224 15.4896 7.3503 15.3001 7.43303 15.1323L7.43403 15.1303C7.47765 15.0425 7.53542 14.9624 7.60503 14.8933L8.57903 13.9253C8.74868 13.7573 8.97778 13.6631 9.21653 13.6631C9.45529 13.6631 9.68439 13.7573 9.85403 13.9253Z" fill="#2F80ED"/>
<path d="M3.34403 1.8312C4.00801 1.17154 4.81317 0.671337 5.69874 0.368353C6.5843 0.0653701 7.52712 -0.0324766 8.45603 0.0821996L5.97903 1.9602C5.72113 2.15532 5.50437 2.39952 5.34124 2.67876C5.17811 2.958 5.07183 3.26674 5.02851 3.58723C4.9852 3.90771 5.00571 4.23359 5.08887 4.54611C5.17202 4.85864 5.31618 5.15162 5.51303 5.4082C5.91049 5.92627 6.4967 6.26612 7.14378 6.3536C7.79085 6.44109 8.44627 6.26912 8.96703 5.8752L10.651 4.6002H14.836L18.343 8.0602C18.3543 8.07414 18.3664 8.0875 18.379 8.1002L19.529 9.2502C19.7877 9.51249 19.936 9.86402 19.9432 10.2323C19.9505 10.6007 19.8162 10.9578 19.568 11.23C19.3198 11.5023 18.9767 11.669 18.6093 11.6958C18.2418 11.7227 17.8781 11.6075 17.593 11.3742L17.497 11.2782C17.4784 11.2593 17.4584 11.2419 17.437 11.2262L16.344 10.1342C16.2979 10.0864 16.2427 10.0484 16.1817 10.0221C16.1207 9.99594 16.0551 9.98215 15.9887 9.98157C15.9223 9.981 15.8565 9.99365 15.7951 10.0188C15.7336 10.0439 15.6778 10.0811 15.6308 10.128C15.5839 10.1749 15.5468 10.2308 15.5216 10.2922C15.4965 10.3537 15.4838 10.4195 15.4844 10.4859C15.485 10.5523 15.4988 10.6179 15.525 10.6789C15.5512 10.7399 15.5893 10.7951 15.637 10.8412L16.787 11.9912C16.829 12.0322 16.871 12.0722 16.915 12.1102L16.959 12.1542C17.136 12.3481 17.2314 12.6027 17.2254 12.8651C17.2194 13.1275 17.1125 13.3775 16.9269 13.5631C16.7413 13.7487 16.4913 13.8556 16.2289 13.8616C15.9665 13.8676 15.7119 13.7721 15.518 13.5952L15.348 13.4262C15.2775 13.3559 15.1876 13.3082 15.0898 13.2893C14.992 13.2704 14.8908 13.2811 14.7992 13.3201C14.7075 13.3591 14.6296 13.4246 14.5754 13.5082C14.5212 13.5918 14.4932 13.6896 14.495 13.7892C14.4935 13.8568 14.5058 13.9241 14.531 13.9868C14.5563 14.0495 14.5941 14.1065 14.642 14.1542L14.865 14.3772C14.9569 14.4637 15.0305 14.5678 15.0814 14.6833C15.1324 14.7988 15.1596 14.9234 15.1615 15.0496C15.1634 15.1758 15.1399 15.3011 15.0925 15.4181C15.0451 15.535 14.9746 15.6413 14.8854 15.7306C14.7961 15.8198 14.6899 15.8902 14.5729 15.9377C14.4559 15.9851 14.3306 16.0085 14.2044 16.0066C14.0782 16.0047 13.9537 15.9775 13.8382 15.9266C13.7227 15.8757 13.6186 15.8021 13.532 15.7102H13.53L13.519 15.6972L13.309 15.4872C13.2629 15.4394 13.2077 15.4014 13.1467 15.3751C13.0857 15.3489 13.0201 15.3351 12.9537 15.3346C12.8873 15.334 12.8215 15.3466 12.7601 15.3718C12.6986 15.3969 12.6428 15.4341 12.5958 15.481C12.5489 15.5279 12.5118 15.5838 12.4866 15.6452C12.4615 15.7067 12.4488 15.7725 12.4494 15.8389C12.45 15.9053 12.4638 15.9709 12.49 16.0319C12.5162 16.0929 12.5543 16.1481 12.602 16.1942L12.82 16.4132C12.9098 16.5018 12.9812 16.6073 13.0302 16.7235C13.0792 16.8398 13.1048 16.9645 13.1056 17.0907C13.1064 17.2168 13.0824 17.3419 13.0348 17.4588C12.9873 17.5756 12.9172 17.6819 12.8285 17.7717C12.7399 17.8615 12.6344 17.9329 12.5182 17.9819C12.4019 18.0309 12.2772 18.0565 12.151 18.0573C12.0249 18.0581 11.8998 18.034 11.783 17.9865C11.6661 17.9389 11.5598 17.8688 11.47 17.7802L10.039 16.4202L10.563 15.8982C10.7397 15.723 10.88 15.5146 10.9757 15.285C11.0714 15.0553 11.1207 14.809 11.1207 14.5602C11.1207 14.3114 11.0714 14.0651 10.9757 13.8354C10.88 13.6058 10.7397 13.3974 10.563 13.2222C10.3762 13.0363 10.1528 12.8912 9.90701 12.796C9.66122 12.7008 9.39836 12.6576 9.13503 12.6692C9.14669 12.4068 9.10324 12.1449 9.00748 11.9003C8.91171 11.6557 8.76576 11.4339 8.57903 11.2492C8.3921 11.0635 8.16868 10.9185 7.92289 10.8235C7.6771 10.7285 7.41428 10.6855 7.15103 10.6972C7.16249 10.435 7.11894 10.1733 7.02318 9.92887C6.92743 9.68448 6.78158 9.46284 6.59503 9.2782C6.35749 9.04221 6.06213 8.87274 5.73852 8.78675C5.41491 8.70076 5.07439 8.70125 4.75103 8.7882C4.69525 8.37707 4.50504 7.99594 4.21003 7.7042C3.88105 7.37812 3.44498 7.1824 2.98269 7.15335C2.52039 7.12429 2.06325 7.26387 1.69603 7.5462C1.45998 6.5323 1.48751 5.47485 1.77599 4.47461C2.06448 3.47437 2.6043 2.56467 3.34403 1.8322V1.8312Z" fill="#2F80ED"/>
</svg>
