<svg width="24" height="24" viewBox="0 0 24 24" fill="none" xmlns="http://www.w3.org/2000/svg">
<path d="M4.79999 4.80005C4.16347 4.80005 3.55302 5.05291 3.10294 5.50299C2.65285 5.95308 2.39999 6.56353 2.39999 7.20005V8.40005H21.6V7.20005C21.6 6.56353 21.3471 5.95308 20.8971 5.50299C20.447 5.05291 19.8365 4.80005 19.2 4.80005H4.79999Z" fill="#2F80ED"/>
<path fill-rule="evenodd" clip-rule="evenodd" d="M21.6 10.8H2.39999V16.8C2.39999 17.4366 2.65285 18.047 3.10294 18.4971C3.55302 18.9472 4.16347 19.2 4.79999 19.2H19.2C19.8365 19.2 20.447 18.9472 20.8971 18.4971C21.3471 18.047 21.6 17.4366 21.6 16.8V10.8ZM4.79999 15.6C4.79999 15.2818 4.92642 14.9766 5.15147 14.7515C5.37651 14.5265 5.68173 14.4 5.99999 14.4H7.19999C7.51825 14.4 7.82348 14.5265 8.04852 14.7515C8.27357 14.9766 8.39999 15.2818 8.39999 15.6C8.39999 15.9183 8.27357 16.2235 8.04852 16.4486C7.82348 16.6736 7.51825 16.8 7.19999 16.8H5.99999C5.68173 16.8 5.37651 16.6736 5.15147 16.4486C4.92642 16.2235 4.79999 15.9183 4.79999 15.6ZM10.8 14.4C10.4817 14.4 10.1765 14.5265 9.95147 14.7515C9.72642 14.9766 9.59999 15.2818 9.59999 15.6C9.59999 15.9183 9.72642 16.2235 9.95147 16.4486C10.1765 16.6736 10.4817 16.8 10.8 16.8H12C12.3183 16.8 12.6235 16.6736 12.8485 16.4486C13.0736 16.2235 13.2 15.9183 13.2 15.6C13.2 15.2818 13.0736 14.9766 12.8485 14.7515C12.6235 14.5265 12.3183 14.4 12 14.4H10.8Z" fill="#2F80ED"/>
</svg>
